<svg xmlns="http://www.w3.org/2000/svg" version="1.1" xmlns:xlink="http://www.w3.org/1999/xlink" xmlns:svgjs="http://svgjs.dev/svgjs" viewBox="0 0 1422 800"><defs><filter id="uuunion-blur" x="-100%" y="-100%" width="400%" height="400%" color-interpolation-filters="sRGB">
        <feGaussianBlur in="SourceGraphic" stdDeviation="0 0" result="blur"></feGaussianBlur>
        <feDropShadow stdDeviation="0" in="blur" dx="0" dy="0" flood-color="hsl(180, 76%, 25%)" flood-opacity="0.37" x="0%" y="0%" width="100%" height="100%"></feDropShadow>
      </filter><filter id="uuunion-blur2" x="-100%" y="-100%" width="400%" height="400%" color-interpolation-filters="sRGB">
        <feGaussianBlur in="SourceGraphic" stdDeviation="0 0" result="blur"></feGaussianBlur>
        <feDropShadow stdDeviation="0" in="blur" dx="-0" dy="-0" flood-color="hsl(180, 76%, 25%)" flood-opacity="0.37" x="0%" y="0%" width="100%" height="100%"></feDropShadow>
      </filter><linearGradient gradientTransform="rotate(0, 0.5, 0.5)" x1="50%" y1="0%" x2="50%" y2="100%" id="uuunion-grad"><stop stop-color="hsl(180, 69%, 60%)" offset="10%"></stop><stop stop-color="hsl(180, 76%, 25%)" offset="90%"></stop></linearGradient><linearGradient gradientTransform="rotate(135, 0.5, 0.5)" x1="50%" y1="0%" x2="50%" y2="100%" id="uuunion-grad2"><stop stop-color="hsl(180, 69%, 60%)" offset="25%"></stop><stop stop-color="hsl(180, 76%, 25%)" offset="100%"></stop></linearGradient><linearGradient gradientTransform="rotate(333, 0.5, 0.5)" x1="50%" y1="0%" x2="50%" y2="100%" id="uuunion-grad3"><stop stop-color="hsl(180, 69%, 60%)" offset="0%"></stop><stop stop-color="hsl(180, 76%, 25%)" offset="75%"></stop></linearGradient></defs><path d="M-131.31 -87.02Q-118.33 -85.6 -105.35 -83.87 -92.36 -81.93 -79.38 -79.89 -66.4 -77.86 -53.42 -75.94 -40.44 -74.24 -27.45 -72.85 -14.47 -71.85 -1.49 -71.3 11.48 -71.22 24.46 -71.62 37.44 -72.47 50.43 -73.74 63.41 -75.34 76.39 -77.2 89.37 -79.21 102.35 -81.26 115.34 -83.25 128.32 -85.05 141.3 -86.58 154.28 -87.76 167.26 -88.51 180.24 -88.79 193.23 -88.6 206.21 -87.94 219.19 -86.85 232.17 -85.38 245.15 -83.62 258.14 -81.66 271.12 -79.61 284.1 -77.59 297.08 -75.69 310.06 -74.03 323.04 -72.69 336.03 -71.75 349.01 -71.26 361.99 -71.25 374.97 -71.71 387.95 -72.62 400.94 -73.94 413.92 -75.58 426.9 -77.46 439.88 -79.49 452.86 -81.54 465.85 -83.5 478.83 -85.28 491.81 -86.76 504.79 -87.88 517.77 -88.57 530.75 -88.79 543.74 -88.54 556.72 -87.82 569.7 -86.67 582.68 -85.16 595.66 -83.36 608.65 -81.39 621.63 -79.34 634.61 -77.32 647.59 -75.45 660.57 -73.83 673.56 -72.54 686.54 -71.66 699.52 -71.23 712.5 -71.28 725.48 -71.81 738.47 -72.78 751.45 -74.14 764.43 -75.82 777.41 -77.73 790.39 -79.76 803.37 -81.81 816.36 -83.76 829.34 -85.5 842.32 -86.94 855.3 -88 868.28 -88.63 881.27 -88.79 894.25 -88.47 907.23 -87.68 920.21 -86.48 933.19 -84.93 946.18 -83.11 959.16 -81.11 972.14 -79.06 985.12 -77.06 998.1 -75.22 1011.09 -73.63 1024.07 -72.4 1037.05 -71.57 1050.03 -71.21 1063.01 -71.33 1075.99 -71.91 1088.98 -72.94 1101.96 -74.35 1114.94 -76.07 1127.92 -78 1140.9 -80.04 1153.89 -82.08 1166.87 -84 1179.85 -85.71 1192.83 -87.11 1205.81 -88.11 1218.8 -88.68 1231.78 -88.77 1244.76 -88.39 1257.74 -87.55 1270.72 -86.29 1283.71 -84.7 1296.69 -82.84 1309.67 -80.84 1322.65 -78.78 1335.63 -76.8 1348.62 -74.98 1361.6 -73.44 1374.58 -72.26 1387.56 -71.5 1400.54 -71.2 1413.53 -71.38 1426.51 -72.03 1439.49 -73.11 1452.47 -74.57 1465.45 -76.32 1478.44 -78.27 1491.42 -80.32 1504.4 -82.35 1517.38 -84.25 1530.36 -85.92 1531.3 -71.07 1535.3 -56.22 1541.99 -41.37 1550.74 -26.53 1560.74 -11.68 1571.06 3.16 1580.75 18.01 1588.89 32.86 1594.74 47.71 1597.75 62.56 1597.64 77.4 1594.42 92.25 1588.38 107.1 1580.1 121.95 1570.34 136.8 1560.01 151.65 1550.07 166.5 1541.44 181.34 1534.93 196.19 1531.13 211.04 1530.42 225.89 1532.84 240.74 1538.18 255.59 1545.93 270.44 1555.39 285.28 1565.66 300.13 1575.8 314.98 1584.86 329.83 1592 344.68 1596.55 359.53 1598.09 374.37 1596.48 389.22 1591.87 404.07 1584.69 418.92 1575.6 433.77 1565.45 448.62 1555.18 463.47 1545.75 478.31 1538.04 493.16 1532.76 508.01 1530.4 522.86 1531.18 537.71 1535.04 552.56 1541.6 567.41 1550.26 582.25 1560.22 597.1 1570.55 611.95 1580.29 626.8 1588.53 641.65 1594.51 656.5 1597.67 671.35 1597.72 686.19 1594.65 701.04 1588.75 715.89 1580.56 730.74 1570.85 745.59 1560.53 760.44 1550.54 775.28 1541.83 790.13 1535.19 804.98 1531.25 819.83 1530.38 834.68 1532.65 849.53 1537.85 864.38 1524.79 868.78 1511.73 873.79 1498.67 879.14 1485.61 884.53 1472.55 889.68 1459.49 894.31 1446.43 898.15 1433.37 901 1420.31 902.71 1407.25 903.18 1394.2 902.4 1381.14 900.39 1368.08 897.27 1355.02 893.21 1341.96 888.43 1328.9 883.19 1315.84 877.78 1302.78 872.48 1289.72 867.6 1276.66 863.39 1263.6 860.09 1250.54 857.87 1237.48 856.85 1224.43 857.1 1211.37 858.59 1198.31 861.25 1185.25 864.93 1172.19 869.42 1159.13 874.5 1146.07 879.87 1133.01 885.25 1119.95 890.35 1106.89 894.88 1093.83 898.6 1080.77 901.3 1067.72 902.85 1054.66 903.15 1041.6 902.19 1028.54 900.03 1015.48 896.77 1002.42 892.6 989.36 887.74 976.3 882.46 963.24 877.05 950.18 871.79 937.12 866.99 924.06 862.89 911.01 859.72 897.95 857.66 884.89 856.81 871.83 857.23 858.77 858.88 845.71 861.69 832.65 865.49 819.59 870.08 806.53 875.21 793.47 880.6 780.41 885.96 767.35 891 754.3 895.43 741.24 899.02 728.18 901.58 715.12 902.96 702.06 903.1 689 901.97 675.94 899.65 662.88 896.25 649.82 891.98 636.76 887.04 623.7 881.73 610.64 876.32 597.59 871.11 584.53 866.39 571.47 862.4 558.41 859.38 545.35 857.47 532.29 856.8 519.23 857.38 506.17 859.2 493.11 862.15 480.05 866.07 466.99 870.75 453.93 875.93 440.88 881.34 427.82 886.67 414.76 891.64 401.7 895.97 388.64 899.43 375.58 901.84 362.52 903.06 349.46 903.02 336.4 901.72 323.34 899.25 310.28 895.72 297.23 891.34 284.17 886.34 271.11 881 258.05 875.6 244.99 870.44 231.93 865.8 218.87 861.93 205.81 859.05 192.75 857.31 179.69 856.8 166.63 857.56 153.57 859.53 140.52 862.63 127.46 866.66 114.4 871.43 101.34 876.66 88.28 882.07 75.22 887.37 62.16 892.26 49.1 896.49 36.04 899.82 22.98 902.08 9.92 903.12 -3.12 902.91 -16.18 901.46 -29.24 898.83 -42.3 895.18 -55.36 890.7 -68.42 885.64 -81.48 880.27 -94.54 874.88 -107.6 869.78 -120.66 865.23 -133.72 861.48 -132.04 846.66 -131.31 831.84 -131.6 817.02 -132.86 802.2 -135 787.38 -137.8 772.56 -141.01 757.74 -144.33 742.92 -147.45 728.1 -150.08 713.28 -151.97 698.46 -152.96 683.64 -152.95 668.82 -151.93 654 -150.01 639.18 -147.36 624.36 -144.23 609.54 -140.91 594.72 -137.71 579.9 -134.92 565.07 -132.81 550.25 -131.57 535.43 -131.32 520.61 -132.08 505.79 -133.78 490.97 -136.26 476.15 -139.29 461.33 -142.59 446.51 -145.85 431.69 -148.77 416.87 -151.08 402.05 -152.56 387.23 -153.08 372.41 -152.58 357.59 -151.12 342.77 -148.83 327.95 -145.92 313.13 -142.66 298.31 -139.35 283.49 -136.32 268.67 -133.82 253.84 -132.11 239.02 -131.33 224.2 -131.56 209.38 -132.78 194.56 -134.87 179.74 -137.64 164.92 -140.84 150.1 -144.16 135.28 -147.3 120.46 -149.96 105.64 -151.9 90.82 -152.94 76 -152.97 61.18 -152 46.36 -150.12 31.54 -147.51 16.72 -144.39 1.9 -141.08 -12.91 -137.86 -27.73 -135.05 -42.55 -132.9 -57.38 -131.61 -72.2 -131.31 -87.02" fill="url(#uuunion-grad)"></path><path d="M-131.32 -87.02Q-131.62 -72.2 -132.91 -57.38 -135.06 -42.56 -137.87 -27.74 -141.09 -12.91 -144.4 1.9 -147.52 16.72 -150.13 31.54 -152.01 46.36 -152.98 61.18 -152.95 76 -151.91 90.82 -149.97 105.64 -147.31 120.46 -144.17 135.28 -140.85 150.1 -137.65 164.92 -134.88 179.74 -132.79 194.56 -131.57 209.38 -131.34 224.2 -132.12 239.02 -133.83 253.84 -136.32 268.66 -139.36 283.48 -142.67 298.3 -145.93 313.13 -148.84 327.95 -151.13 342.77 -152.6 357.59 -153.09 372.41 -152.57 387.23 -143.46 388.88 -134.36 390.8 -125.25 392.95 -116.14 395.26 -107.03 397.69 -97.92 400.18 -88.81 402.66 -79.7 405.08 -70.59 407.37 -61.48 409.49 -52.37 411.37 -43.26 412.98 -34.15 414.28 -25.04 415.22 -7.82 415.94 -4.78 415.99 6.46 412.4 17.75 408.24 29.07 403.54 40.42 398.36 51.8 392.78 63.2 386.9 74.62 380.83 86.05 374.66 97.49 368.53 108.95 362.55 120.4 356.81 131.86 351.42 143.32 346.47 154.77 342.01 166.2 338.09 177.63 334.75 189.03 331.98 200.42 329.77 211.79 328.08 223.13 326.85 234.44 326.01 245.72 325.48 256.98 325.14 268.19 324.9 279.38 324.64 290.52 324.27 301.63 323.66 312.71 322.74 323.75 321.42 334.74 319.63 345.71 317.33 356.63 314.49 367.52 311.1 378.38 307.18 389.2 302.76 400 297.89 410.76 292.63 421.5 287.08 432.22 281.33 442.92 275.47 453.59 269.62 464.26 263.86 474.91 258.31 485.55 253.05 496.2 248.16 506.84 243.7 517.48 239.73 528.13 236.26 538.8 233.31 549.48 230.88 560.18 228.92 570.9 227.4 581.65 226.24 592.44 225.38 603.25 224.72 614.11 224.17 625 223.64 635.95 223.02 646.93 222.22 657.97 221.16 669.07 219.76 680.21 217.95 691.42 215.69 702.68 212.96 714 209.73 725.38 206.02 736.83 201.85 748.33 197.27 759.9 192.33 771.53 187.1 783.22 181.67 794.96 176.12 806.77 170.54 818.63 165.04 830.54 159.69 842.5 154.58 854.51 149.79 866.57 145.37 878.66 141.36 890.79 137.81 902.95 134.72 915.14 132.08 927.35 129.89 939.58 128.08 951.82 126.63 964.06 125.45 976.31 124.47 988.55 123.61 1000.78 122.79 1012.99 121.92 1025.18 120.91 1037.34 119.68 1049.47 118.17 1061.55 116.31 1073.59 114.06 1085.58 111.4 1097.5 108.3 1109.36 104.77 1121.15 100.83 1132.87 96.51 1144.51 91.87 1156.06 86.95 1167.52 81.83 1178.9 76.59 1190.17 71.31 1201.35 66.07 1212.43 60.94 1223.4 56.01 1234.27 51.34 1245.03 46.98 1255.69 42.99 1266.23 39.38 1276.67 36.17 1287 33.37 1297.22 30.96 1307.34 28.9 1317.36 27.16 1327.28 25.68 1337.11 24.39 1346.84 23.22 1356.48 22.11 1366.04 20.97 1375.53 19.72 1384.94 18.31 1394.28 16.66 1403.57 14.72 1412.8 12.45 1422 9.82 1411.45 -7.92 1402.24 -25.68 1395.51 -43.44 1392.14 -61.2 1392.53 -78.96 1396.63 -96.71 1403.94 -114.47 1413.53 -132.23 1401.31 -132.72 1389.09 -133.55 1376.86 -134.68 1364.64 -136.06 1352.42 -137.62 1340.2 -139.29 1327.98 -140.99 1315.76 -142.65 1303.53 -144.18 1291.31 -145.52 1279.09 -146.6 1266.87 -147.38 1254.65 -147.81 1242.42 -147.88 1230.2 -147.58 1217.98 -146.93 1205.76 -145.96 1193.54 -144.71 1181.32 -143.24 1169.09 -141.62 1156.87 -139.92 1144.65 -138.23 1132.43 -136.62 1120.21 -135.17 1107.99 -133.94 1095.76 -132.99 1083.54 -132.37 1071.32 -132.1 1059.1 -132.2 1046.88 -132.67 1034.65 -133.47 1022.43 -134.57 1010.21 -135.93 997.99 -137.48 985.77 -139.14 973.55 -140.84 961.32 -142.51 949.1 -144.05 936.88 -145.41 924.66 -146.52 912.44 -147.32 900.21 -147.79 887.99 -147.89 875.77 -147.62 863.55 -147 851.33 -146.05 839.11 -144.82 826.88 -143.37 814.66 -141.76 802.44 -140.07 790.22 -138.38 778 -136.76 765.77 -135.29 753.55 -134.04 741.33 -133.06 729.11 -132.41 716.89 -132.11 704.67 -132.18 692.44 -132.61 680.22 -133.38 668 -134.47 655.78 -135.8 643.56 -137.34 631.33 -138.99 619.11 -140.7 606.89 -142.37 594.67 -143.93 582.45 -145.3 570.23 -146.43 558 -147.27 545.78 -147.76 533.56 -147.89 521.34 -147.66 509.12 -147.07 496.9 -146.15 484.67 -144.94 472.45 -143.51 460.23 -141.91 448.01 -140.22 435.79 -138.52 423.56 -136.89 411.34 -135.41 399.12 -134.14 386.9 -133.14 374.68 -132.46 362.46 -132.13 350.23 -132.16 338.01 -132.56 325.79 -133.3 313.57 -134.36 301.35 -135.68 289.12 -137.2 276.9 -138.84 264.68 -140.55 252.46 -142.22 240.24 -143.8 228.02 -145.19 215.79 -146.35 203.57 -147.21 191.35 -147.73 179.13 -147.89 166.91 -147.69 154.68 -147.13 142.46 -146.24 130.24 -145.06 118.02 -143.64 105.8 -142.05 93.58 -140.37 81.35 -138.67 69.13 -137.03 56.91 -135.53 44.69 -134.24 32.47 -133.21 20.24 -132.5 8.02 -132.14 -4.19 -132.14 -16.41 -132.51 -28.63 -133.23 -40.85 -134.26 -53.08 -135.55 -65.3 -137.06 -77.52 -138.7 -89.74 -140.4 -101.96 -142.08 -114.18 -143.66 -126.41 -145.08 -141.74 -139.21 -139.46 -117.14 -134.91 -102.1 -131.32 -87.02" fill="url(#uuunion-grad2)" filter="url(#uuunion-blur)"></path><path d="M1429.38 334.54Q1438.33 334.79 1447.27 334.68 1456.22 334.21 1465.16 333.4 1474.11 332.26 1483.05 330.82 1491.99 329.12 1500.94 327.2 1509.88 325.11 1518.83 322.89 1527.77 320.6 1536.72 318.3 1545.66 316.04 1554.61 313.87 1563.55 311.85 1572.5 310.03 1583.46 327.35 1592 344.68 1597.02 362 1597.9 379.32 1594.53 396.65 1587.33 413.97 1577.21 431.29 1565.45 448.62 1553.53 465.94 1542.95 483.26 1535.06 500.59 1530.84 517.91 1530.83 535.23 1535.04 552.56 1542.92 569.88 1553.48 587.2 1565.4 604.53 1577.17 621.85 1587.3 639.17 1594.51 656.5 1597.9 673.82 1597.03 691.14 1592.02 708.47 1583.5 725.79 1572.54 743.11 1560.53 760.44 1548.98 777.76 1539.35 795.08 1532.86 812.41 1530.32 829.73 1532.05 847.05 1537.85 864.38 1525.87 868.39 1513.89 872.93 1501.91 877.79 1489.93 882.76 1477.95 887.6 1465.98 892.09 1454 896.03 1442.02 899.23 1430.04 901.55 1418.06 902.88 1406.08 903.17 1394.1 902.39 1382.13 900.58 1370.15 897.83 1358.17 894.26 1346.19 890.04 1334.21 885.36 1322.23 880.43 1310.25 875.48 1298.27 870.74 1286.3 866.42 1274.32 862.73 1262.34 859.82 1250.36 857.85 1238.38 856.88 1226.4 856.98 1214.42 858.13 1202.45 860.29 1190.47 863.35 1178.49 867.17 1166.51 871.58 1154.53 876.37 1142.55 881.33 1130.57 886.23 1118.6 890.85 1106.62 894.96 1094.64 898.39 1082.66 900.98 1070.68 902.61 1058.7 903.19 1046.72 902.72 1034.75 901.2 1022.77 898.71 1010.79 895.36 998.81 891.31 986.83 886.74 974.85 881.86 962.87 876.89 950.89 872.07 938.92 867.61 926.94 863.72 914.96 860.57 902.98 858.32 891 857.05 879.02 856.84 867.04 857.7 855.07 859.57 843.09 862.38 831.11 866 819.13 870.26 807.15 874.96 795.17 879.9 783.19 884.84 771.22 889.56 759.24 893.84 747.26 897.48 735.28 900.33 723.3 902.24 711.32 903.13 699.34 902.96 687.37 901.74 675.39 899.52 663.41 896.41 651.43 892.54 639.45 888.1 627.47 883.29 615.49 878.32 603.51 873.43 591.54 868.85 579.56 864.77 567.58 861.39 555.6 858.87 543.62 857.31 531.64 856.8 519.66 857.34 507.69 858.93 495.71 861.48 483.73 864.88 471.75 868.97 459.77 873.57 447.79 878.46 435.81 883.43 423.84 888.23 411.86 892.66 399.88 896.51 387.9 899.6 375.92 901.79 363.94 902.98 351.96 903.12 339.99 902.2 328.01 900.26 316.03 897.39 304.05 893.72 292.07 889.43 280.09 884.7 268.11 879.76 256.13 874.82 244.16 870.13 232.18 865.88 220.2 862.29 208.22 859.5 196.24 857.66 184.26 856.84 172.28 857.08 160.31 858.37 148.33 860.65 136.35 863.82 124.37 867.73 112.39 872.21 100.41 877.04 88.43 882 76.46 886.88 64.48 891.44 52.5 895.47 40.52 898.8 28.54 901.26 10.97 897.89 5.92 882.89 6.17 872.74 6.12 862.59 5.77 852.44 5.15 842.29 3.96 827.07 4.15 822 15.72 815.13 27.31 807.24 38.94 798.43 50.63 788.82 62.39 778.58 74.24 767.9 86.18 757.01 98.22 746.12 110.37 735.45 122.62 725.22 134.98 715.61 147.44 706.78 160 698.84 172.63 691.86 185.34 685.88 198.1 680.86 210.91 676.75 223.74 673.43 236.59 670.75 249.43 668.54 262.25 666.6 275.04 664.73 287.78 662.7 300.45 660.33 313.06 657.43 325.58 653.84 338.02 649.45 350.37 644.17 362.64 637.97 374.82 630.85 386.92 622.86 398.94 614.1 410.9 604.69 422.82 594.78 434.7 584.57 446.56 574.24 458.42 563.98 470.3 553.99 482.22 544.45 494.19 535.5 506.24 527.27 518.38 519.85 530.63 513.28 543.01 507.57 555.52 502.69 568.18 498.55 580.99 495.07 593.96 492.08 607.09 489.44 620.37 486.96 633.8 484.47 647.36 481.79 661.05 478.74 674.85 475.18 688.73 470.99 702.67 466.07 716.65 460.36 730.65 453.86 744.62 446.59 758.54 438.59 772.39 429.96 786.13 420.83 799.73 411.33 813.17 401.63 823.24 397.65 833.3 393.72 843.36 389.9 853.41 386.27 863.45 382.9 873.49 379.85 883.52 377.16 893.53 374.89 903.54 373.06 913.55 371.69 923.54 370.77 933.52 370.31 943.49 370.26 953.45 370.6 963.39 371.29 973.33 372.25 983.25 373.44 993.15 374.77 1003.05 376.18 1012.93 377.58 1022.79 378.9 1032.64 380.07 1042.48 381.01 1052.3 381.66 1062.1 381.97 1071.88 381.89 1081.65 381.4 1091.4 380.46 1101.14 379.07 1110.85 377.24 1120.55 374.98 1130.23 372.33 1139.89 369.33 1149.53 366.02 1159.15 362.47 1168.75 358.74 1178.33 354.92 1187.9 351.06 1197.44 347.25 1206.96 343.57 1216.46 340.08 1225.94 336.84 1235.4 333.92 1244.84 331.36 1254.26 329.19 1263.66 327.45 1273.04 326.15 1282.4 325.29 1291.73 324.85 1301.05 324.81 1310.34 325.13 1319.62 325.78 1328.87 326.68 1338.11 327.79 1347.32 329.02 1356.52 330.31 1365.69 331.59 1374.85 332.78 1383.98 333.81 1393.1 334.62 1402.2 335.14 1411.28 335.32 1420.34 335.14 1429.38 334.54" fill="url(#uuunion-grad3)" filter="url(#uuunion-blur2)"></path></svg>